<?xml version="1.0" standalone="no"?>
<!DOCTYPE svg PUBLIC "-//W3C//DTD SVG 20010904//EN"
 "http://www.w3.org/TR/2001/REC-SVG-20010904/DTD/svg10.dtd">
<svg version="1.0" xmlns="http://www.w3.org/2000/svg"
 width="1037.000000pt" height="1037.000000pt" viewBox="0 0 1037.000000 1037.000000"
 preserveAspectRatio="xMidYMid meet">
<metadata>
Created by potrace 1.14, written by Peter Selinger 2001-2017
</metadata>
<g transform="translate(0.000000,1037.000000) scale(0.100000,-0.100000)"
fill="#000000" stroke="none">
<path d="M4720 9979 c-420 -37 -941 -163 -1343 -325 -601 -241 -1147 -602
-1602 -1058 -187 -187 -322 -341 -450 -511 -97 -130 -205 -289 -205 -303 0 -6
24 -13 53 -16 28 -3 126 -13 217 -21 539 -53 1135 -228 1647 -483 549 -274
997 -607 1428 -1064 77 -81 141 -145 143 -143 2 2 -13 54 -33 116 -164 506
-246 1151 -217 1701 29 538 109 957 273 1428 64 182 164 420 240 573 l59 117
-57 -1 c-32 -1 -101 -6 -153 -10z"/>
<path d="M5334 9863 c324 -649 495 -1336 522 -2098 10 -305 -24 -750 -82
-1050 -31 -161 -95 -423 -128 -530 -14 -43 -24 -80 -23 -82 2 -1 90 85 197
191 107 106 240 230 295 275 866 718 1858 1106 2983 1169 l133 7 -69 105
c-168 259 -361 491 -626 755 -581 580 -1287 991 -2091 1219 -323 91 -805 166
-1078 166 l-97 0 64 -127z"/>
<path d="M5015 9773 c-253 -522 -407 -1062 -467 -1633 -20 -194 -17 -815 5
-1005 34 -290 102 -620 178 -870 75 -243 257 -683 340 -822 l25 -42 61 92 c92
139 147 259 253 552 141 390 224 790 261 1248 15 189 6 679 -15 880 -46 423
-159 867 -323 1272 -72 177 -220 485 -233 485 -5 0 -43 -71 -85 -157z"/>
<path d="M1004 7585 c20 -53 267 -405 375 -535 566 -681 1240 -1164 2046
-1467 461 -173 1042 -291 1358 -276 70 3 127 9 127 13 0 4 -40 68 -90 144
-671 1022 -1762 1771 -2957 2030 -294 63 -610 106 -785 106 -67 0 -79 -2 -74
-15z"/>
<path d="M9015 7563 c-337 -22 -746 -98 -1090 -201 -979 -295 -1880 -940
-2482 -1779 -42 -57 -143 -240 -143 -257 0 -7 212 -21 275 -18 33 2 138 14
233 28 498 70 939 206 1397 428 489 238 905 534 1285 915 189 190 337 358 472
541 90 121 228 328 228 342 0 8 -69 8 -175 1z"/>
<path d="M9311 7427 c-239 -388 -638 -847 -996 -1146 -605 -504 -1242 -830
-2015 -1031 -80 -21 -138 -40 -130 -43 8 -3 95 -27 193 -52 1168 -302 2201
-1039 2878 -2055 72 -107 134 -196 138 -198 8 -3 144 273 205 416 136 316 275
797 320 1112 45 310 51 400 51 765 0 312 -3 386 -23 550 -55 467 -179 928
-362 1355 -73 170 -191 400 -205 400 -5 0 -30 -33 -54 -73z"/>
<path d="M867 7348 c-103 -185 -273 -631 -346 -908 -72 -277 -96 -402 -137
-745 -21 -170 -29 -644 -15 -835 12 -162 51 -459 77 -595 17 -90 104 -429 133
-520 33 -107 128 -357 171 -455 74 -169 133 -290 140 -290 4 0 45 55 90 123
158 233 273 376 491 613 625 680 1498 1199 2394 1424 94 24 173 46 178 50 4 3
-37 17 -90 29 -754 181 -1461 540 -2068 1050 -179 150 -467 445 -646 661 -69
84 -157 203 -244 330 -43 63 -82 119 -86 123 -4 5 -23 -20 -42 -55z"/>
<path d="M4515 5104 c-281 -40 -389 -60 -600 -114 -1044 -264 -1954 -865
-2627 -1735 -105 -136 -283 -403 -274 -412 12 -12 397 16 567 41 92 13 265 47
386 75 1103 256 2065 884 2757 1801 77 103 208 332 196 343 -15 14 -313 14
-405 1z"/>
<path d="M5480 5114 c-8 -1 -55 -6 -103 -9 -105 -8 -104 -3 -17 -141 137 -218
335 -460 585 -710 399 -401 826 -702 1340 -946 462 -218 934 -354 1474 -423
145 -19 412 -34 424 -25 11 9 -154 258 -273 410 -671 862 -1576 1457 -2615
1720 -229 58 -379 85 -630 115 -127 15 -155 16 -185 9z"/>
<path d="M5033 4878 c-198 -297 -416 -1019 -480 -1588 -22 -196 -25 -838 -5
-1025 47 -434 170 -925 327 -1306 78 -189 178 -399 191 -399 24 0 164 300 263
565 107 286 181 563 230 860 58 346 65 441 66 810 0 405 -14 551 -91 953 -69
360 -215 796 -368 1099 -71 140 -61 138 -133 31z"/>
<path d="M5544 4404 c4 -12 29 -96 55 -186 78 -261 138 -564 178 -888 25 -207
25 -840 0 -1050 -71 -584 -210 -1082 -443 -1582 -40 -86 -91 -188 -113 -228
-23 -39 -41 -74 -41 -76 0 -8 216 -4 335 6 156 14 490 57 580 76 182 38 510
129 671 187 857 308 1581 826 2160 1547 125 155 331 457 319 468 -3 3 -85 9
-182 13 -333 15 -555 47 -900 128 -981 232 -1884 774 -2567 1541 -33 37 -55
56 -52 44z"/>
<path d="M4400 4120 c-195 -197 -300 -288 -521 -455 -598 -451 -1212 -728
-2004 -905 -157 -35 -454 -74 -668 -86 -65 -4 -120 -10 -122 -14 -6 -10 179
-282 279 -409 495 -634 1128 -1131 1856 -1454 393 -175 831 -301 1244 -357
213 -29 476 -54 484 -45 2 2 -21 52 -53 112 -234 443 -430 1066 -494 1578 -61
478 -64 835 -11 1294 32 271 108 636 176 844 14 43 24 79 23 81 -2 1 -87 -82
-189 -184z"/>
</g>
</svg>
